#!OML:ASF H:\ManfredETheater\Project 1\Capture day 1\Session 1\subject.ASF
:FULLY-SPECIFIED
:DEGREES
273
root 1.15554 17.497 -17.5113 -163.274 0.250527 -181.891
lowerback 3.76961 -0.555778 -2.77142
upperback -3.67431 -0.915216 1.98517
thorax -5.86434 -0.329548 3.71158
lowerneck -15.5405 -1.28551 -1.73411
upperneck 7.39822 -1.63974 2.76771
head 4.77498 -0.65229 1.00549
rclavicle -1.25234e-014 1.19271e-014
rhumerus -37.4578 -1.33352 -87.0707
rradius 42.4574
rwrist 0.38525
rhand -21.7014 -8.01801
rfingers 7.12502
rthumb 4.69711 -37.9459
lclavicle -1.25234e-014 1.19271e-014
lhumerus -37.4848 -4.5102 95.0663
lradius 45.3099
lwrist -3.61889
lhand -15.7144 4.23045
lfingers 7.12502
lthumb 10.4757 33.9494
rfemur -18.4327 -1.82979 22.0441
rtibia 33.8848
rfoot -26.653 -10.1985
rtoes -26.8389
lfemur -22.5081 -4.00633 -23.3962
ltibia 41.8485
lfoot -28.6755 2.15111
ltoes 0.790739
274
root 1.15992 17.4881 -17.5819 -163.07 0.253383 -181.798
lowerback 3.74665 -0.530563 -2.54365
upperback -3.68862 -0.868075 1.99978
thorax -5.87208 -0.316395 3.59406
lowerneck -15.521 -1.30712 -1.78365
upperneck 7.35164 -1.65095 2.7032
head 4.75728 -0.664265 0.992395
rclavicle 1.27222e-014 7.95139e-015
rhumerus -37.627 -1.04861 -87.3053
rradius 42.9337
rwrist 0.203604
rhand -21.5362 -7.97583
rfingers 7.12502
rthumb 4.85662 -37.9002
lclavicle 1.27222e-014 7.95139e-015
lhumerus -37.6196 -4.58054 95.1426
lradius 45.2641
lwrist -3.65704
lhand -15.6212 4.10643
lfingers 7.12502
lthumb 10.5656 33.8209
rfemur -18.3377 -2.10791 22.146
rtibia 33.8008
rfoot -26.9008 -10.066
rtoes -27.4214
lfemur -22.6549 -3.94963 -23.3328
ltibia 42.1993
lfoot -28.6718 2.40102
ltoes 0.400556
275
root 1.1632 17.4782 -17.6537 -162.87 0.253314 -181.69
lowerback 3.73756 -0.500437 -2.29026
upperback -3.70016 -0.812821 2.01933
thorax -5.88539 -0.300206 3.46682
lowerneck -15.5093 -1.32906 -1.83664
upperneck 7.30175 -1.66072 2.6302
head 4.73971 -0.676063 0.977324
rclavicle -5.36719e-015 1.51076e-014
rhumerus -37.8073 -0.733973 -87.5368
rradius 43.4405
rwrist 0.0583603
rhand -21.3548 -7.91139
rfingers 7.12502
rthumb 5.0318 -37.8317
lclavicle -5.36719e-015 1.51076e-014
lhumerus -37.7714 -4.66118 95.2249
lradius 45.2736
lwrist -3.67857
lhand -15.5441 3.97368
lfingers 7.12502
lthumb 10.64 33.6843
rfemur -18.2363 -2.35946 22.2601
rtibia 33.7291
rfoot -27.1497 -9.96238
rtoes -28.0315
lfemur -22.8139 -3.85733 -23.2602
ltibia 42.5927
lfoot -28.6724 2.61226
ltoes 0.0390486
276
root 1.16529 17.4673 -17.7265 -162.681 0.252627 -181.56
lowerback 3.7434 -0.595408 -2.01396
upperback -3.704 -0.716932 2.05266
thorax -5.89867 -0.176142 3.32851
lowerneck -15.4972 -1.35286 -1.88791
upperneck 7.24645 -1.67135 2.54033
head 4.72023 -0.689321 0.956654
rclavicle -1.51076e-014 1.19271e-014
rhumerus -38.0071 -0.38575 -87.7635
rradius 43.9837
rwrist -0.0754911
rhand -21.175 -7.82075
rfingers 7.12502
rthumb 5.20536 -37.7368
lclavicle -1.51076e-014 1.19271e-014
lhumerus -37.946 -4.751 95.3164
lradius 45.3427
lwrist -3.68382
lhand -15.4878 3.83203
lfingers 7.12502
lthumb 10.6943 33.5399
rfemur -18.1223 -2.58698 22.3928
rtibia 33.6665
rfoot -27.394 -9.88465
rtoes -28.6761
lfemur -22.981 -3.73143 -23.1697
ltibia 43.0298
lfoot -28.6795 2.78027
ltoes -0.307415
